<svg width="125" height="114" viewBox="0 0 125 114" fill="none" xmlns="http://www.w3.org/2000/svg">
<path d="M65.3613 27.9447L65.4577 27.975L65.4603 27.9718C66.2126 28.1509 66.9651 27.6824 67.1818 26.9104C69.2987 19.4077 75.9636 14.1752 83.3815 14.1752C84.1959 14.1752 84.843 13.4809 84.843 12.6419C84.843 11.8028 84.1959 11.1085 83.3815 11.1085C74.3716 11.1085 66.8073 17.4354 64.3795 26.0406C64.1521 26.8451 64.5843 27.7002 65.3613 27.9447Z" fill="#4880FF" stroke="#F9FFF9" stroke-width="0.3"/>
<path d="M101.742 80.4271H93.8727C93.1486 80.4271 92.5612 79.8076 92.5612 79.0438C92.5612 78.28 93.1485 77.6604 93.8727 77.6604H101.742C112.589 77.6604 121.414 68.3513 121.414 56.9101C121.414 45.4688 112.589 36.1597 101.742 36.1597H101.552C101.172 36.1597 100.81 35.9858 100.561 35.6825C100.312 35.3791 100.2 34.977 100.254 34.5797C100.371 33.7181 100.43 32.8525 100.43 32.0097C100.43 22.094 92.7811 14.026 83.3805 14.026C79.7233 14.026 76.2356 15.2315 73.294 17.513C72.6476 18.014 71.7296 17.7916 71.3558 17.0416C63.025 0.309038 41.2658 -1.93798 29.9848 12.6179C25.2326 18.7501 23.3653 26.7271 24.8616 34.5018C25.0264 35.3604 24.4035 36.1608 23.5763 36.1608H23.0508C12.2038 36.1608 3.37826 45.4699 3.37826 56.9111C3.37826 68.3524 12.2038 77.6615 23.0508 77.6615H30.9197C31.6438 77.6615 32.2312 78.281 32.2312 79.0448C32.2312 79.8086 31.6438 80.4282 30.9197 80.4282H23.0508C10.7572 80.4282 0.755127 69.8781 0.755127 56.911C0.755127 44.3077 10.2035 33.9878 22.0212 33.4186C20.9111 25.3526 23.0339 17.2165 27.9538 10.867C40.0318 -4.71844 63.1783 -2.97151 72.9628 14.4074C76.0843 12.3432 79.6562 11.2604 83.3801 11.2604C94.7695 11.2604 103.795 21.4854 103.005 33.4315C114.714 34.1242 124.037 44.3897 124.037 56.91C124.037 69.8781 114.035 80.4272 101.741 80.4272L101.742 80.4271Z" fill="#4880FF"/>
<path d="M29.2825 78.2625C29.2825 97.4076 44.051 112.997 62.2204 112.997C80.3901 112.997 95.1583 97.4074 95.1583 78.2625C95.1583 59.1174 80.3901 43.5282 62.2204 43.5282C44.0507 43.5282 29.2825 59.1176 29.2825 78.2625ZM32.2061 78.2625C32.2061 60.7941 45.6781 46.5955 62.2204 46.5955C78.7625 46.5955 92.2347 60.7939 92.2347 78.2625C92.2347 95.7309 78.7625 109.929 62.2204 109.929C45.6784 109.929 32.2061 95.7311 32.2061 78.2625Z" fill="#4880FF" stroke="#F9FFF9" stroke-width="0.3"/>
<path d="M61.7093 92.1849C61.7093 92.8193 62.199 93.3477 62.8194 93.3477C63.4398 93.3477 63.9296 92.8201 63.9296 92.1849V65.8526C63.9296 65.2182 63.4399 64.6898 62.8194 64.6898C62.199 64.6898 61.7093 65.2182 61.7093 65.8526V92.1849Z" fill="#4880FF" stroke="#4880FF" stroke-width="0.3"/>
<path d="M62.8193 67.5052L69.7127 74.7764C69.9286 75.004 70.2142 75.1198 70.5005 75.1198L62.8193 67.5052ZM62.8193 67.5052L55.9259 74.7763C55.9258 74.7763 55.9258 74.7763 55.9258 74.7763C55.4921 75.2346 54.7843 75.2344 54.3501 74.7764C53.9201 74.3228 53.9201 73.5912 54.3501 73.1376L62.0313 65.0356C62.465 64.5773 63.1728 64.5775 63.607 65.0355L71.2883 73.1376C71.7183 73.5912 71.7183 74.3228 71.2883 74.7764C71.0723 75.005 70.7865 75.1198 70.5006 75.1198L62.8193 67.5052Z" fill="#4880FF" stroke="#4880FF" stroke-width="0.3"/>
</svg>
