<svg id="visual" viewBox="0 0 900 600" width="900" height="600" xmlns="http://www.w3.org/2000/svg" xmlns:xlink="http://www.w3.org/1999/xlink" version="1.1"><rect x="0" y="0" width="900" height="600" fill="#396be1"></rect><path d="M0 406L21.5 417.2C43 428.3 86 450.7 128.8 455.2C171.7 459.7 214.3 446.3 257.2 434.8C300 423.3 343 413.7 385.8 412.8C428.7 412 471.3 420 514.2 425.8C557 431.7 600 435.3 642.8 426.7C685.7 418 728.3 397 771.2 400C814 403 857 430 878.5 443.5L900 457L900 601L878.5 601C857 601 814 601 771.2 601C728.3 601 685.7 601 642.8 601C600 601 557 601 514.2 601C471.3 601 428.7 601 385.8 601C343 601 300 601 257.2 601C214.3 601 171.7 601 128.8 601C86 601 43 601 21.5 601L0 601Z" fill="#568AFF" stroke-linecap="round" stroke-linejoin="miter"></path></svg>