<svg width="20" height="14" viewBox="0 0 20 14" fill="none" xmlns="http://www.w3.org/2000/svg">
<path fill-rule="evenodd" clip-rule="evenodd" d="M0.0685425 1C0.0685425 0.447715 0.514863 0 1.06543 0H19.0094C19.5599 0 20.0062 0.447715 20.0062 1C20.0062 1.55228 19.5599 2 19.0094 2H1.06543C0.514863 2 0.0685425 1.55228 0.0685425 1ZM0.0685425 7C0.0685425 6.44772 0.514863 6 1.06543 6H19.0094C19.5599 6 20.0062 6.44772 20.0062 7C20.0062 7.55228 19.5599 8 19.0094 8H1.06543C0.514863 8 0.0685425 7.55228 0.0685425 7ZM0.0685425 13C0.0685425 12.4477 0.514863 12 1.06543 12H19.0094C19.5599 12 20.0062 12.4477 20.0062 13C20.0062 13.5523 19.5599 14 19.0094 14H1.06543C0.514863 14 0.0685425 13.5523 0.0685425 13Z" fill="black"/>
</svg>
